<?xml version="1.0" encoding="UTF-8" standalone="no"?>
<svg
   xmlns:dc="http://purl.org/dc/elements/1.1/"
   xmlns:cc="http://creativecommons.org/ns#"
   xmlns:rdf="http://www.w3.org/1999/02/22-rdf-syntax-ns#"
   xmlns:svg="http://www.w3.org/2000/svg"
   xmlns="http://www.w3.org/2000/svg"
   xmlns:sodipodi="http://sodipodi.sourceforge.net/DTD/sodipodi-0.dtd"
   xmlns:inkscape="http://www.inkscape.org/namespaces/inkscape"
   width="66.626999mm"
   height="52.931999mm"
   viewBox="0 0 66.626999 52.931999"
   version="1.1"
   id="svg4088"
   inkscape:version="1.0.2 (e86c870879, 2021-01-15, custom)"
   sodipodi:docname="AguaNieve.svg">
  <defs
     id="defs4082" />
  <sodipodi:namedview
     id="base"
     pagecolor="#ffffff"
     bordercolor="#666666"
     borderopacity="1.0"
     inkscape:pageopacity="0.0"
     inkscape:pageshadow="2"
     inkscape:zoom="0.35"
     inkscape:cx="400"
     inkscape:cy="560"
     inkscape:document-units="mm"
     inkscape:current-layer="g13578"
     showgrid="false"
     inkscape:window-width="1920"
     inkscape:window-height="1017"
     inkscape:window-x="-8"
     inkscape:window-y="-8"
     inkscape:window-maximized="1"
     inkscape:document-rotation="0" />
  <metadata
     id="metadata4085">
    <rdf:RDF>
      <cc:Work
         rdf:about="">
        <dc:format>image/svg+xml</dc:format>
        <dc:type
           rdf:resource="http://purl.org/dc/dcmitype/StillImage" />
        <dc:title></dc:title>
      </cc:Work>
    </rdf:RDF>
  </metadata>
  <g
     inkscape:label="Capa 1"
     inkscape:groupmode="layer"
     id="layer1">
    <g
       id="g13578"
       transform="matrix(0.26458333,0,0,0.26458333,55.913827,-8.9050029)">
      <g
         id="g43"
         transform="matrix(2.3104815,0,0,2.3104815,-50.668407,-235.95311)">
        <path
           id="path11886"
           style="color:#000000;fill:none;stroke:#6798e9;stroke-width:6.154;stroke-linecap:round;stroke-linejoin:round;stroke-miterlimit:0.5"
           d="m 10.209999,176.15143 c 8.55,-2.05 14.01,-5.19 14.01,-8.69 0,-0.42 -0.25,-0.79 -0.4,-1.19 0.91,0.23 1.81,0.47 2.81,0.47 5.57,0 10.09,-3.78 10.09,-8.44 0,-4.65 -4.52,-8.44 -10.09,-8.44 -0.68,0 -1.26,0.24 -1.91,0.35 0.57,-1.86 0.94,-3.76 0.94,-5.78 0,-12.33 -11.15,-22.35 -24.94000026,-22.35 v 0 c -9.76200004,0 -18.14399974,5.07 -22.24699974,12.38 -1.639,-0.92 -3.446,-1.47 -5.375,-1.47 -5.833,0 -10.687,4.69 -12.188,11.06 -2.56,-1.01 -5.538,-1.62 -8.718,-1.62 -9.542,0 -17.282,5.22 -17.282,11.65 0,5.81 6.348,10.59 14.594,11.47 -0.369,0.63 -0.656,1.25 -0.656,1.91 0,2.86 3.64,5.47 9.622,7.46"
           stroke-miterlimit=".5"
           inkscape:connector-curvature="0" />
        <path
           id="path11884"
           style="color:#000000;fill:none;stroke:#6798e9;stroke-width:6.154;stroke-linecap:round;stroke-linejoin:round;stroke-miterlimit:0.5"
           d="m 10.099999,176.18143 c 0.04,-0.01 0.07,-0.02 0.11,-0.03"
           stroke-miterlimit=".5"
           inkscape:connector-curvature="0" />
        <path
           id="path11073"
           style="color:#000000;fill:none;stroke:#6798e9;stroke-width:6.154;stroke-linecap:round;stroke-linejoin:round;stroke-miterlimit:0.5"
           d="m -41.530001,174.92143 c 0.042,0.01 0.085,0.02 0.127,0.04"
           stroke-miterlimit=".5"
           inkscape:connector-curvature="0" />
        <path
           id="path11873"
           style="color:#000000;fill:#9e9e9e;stroke:#a6a6a6;stroke-width:0.133924;stroke-linecap:round;stroke-miterlimit:0.5"
           d="m -36.908483,163.2227 c 0.314958,-1.06418 7.921686,1.64638 8.532514,0.72059 0.610829,-0.92579 -4.962984,-6.77161 -4.089689,-7.44448 0.878066,-0.68241 5.440194,5.98422 6.480512,5.59291 1.035545,-0.38654 -0.04295,-8.39413 1.064178,-8.42753 1.111899,-0.0334 0.882838,8.04099 1.956561,8.33686 1.064178,0.29587 4.900947,-6.81456 5.812418,-6.19419 0.921015,0.62992 -4.013336,7.02453 -3.31661,7.89783 0.687183,0.86375 7.969407,-2.6342 8.341631,-1.59389 0.376996,1.04509 -7.372895,3.32139 -7.325174,4.43328 0.05249,1.10713 7.99804,2.55785 7.687854,3.61726 -0.310187,1.06895 -7.921686,-1.64638 -8.532515,-0.71582 -0.606057,0.92102 4.967756,6.76684 4.094462,7.44448 -0.882839,0.67764 -5.440194,-5.98899 -6.485284,-5.59768 -1.030774,0.39132 0.04295,8.39413 -1.059407,8.42753 -1.116671,0.0334 -0.882838,-8.04099 -1.956561,-8.33686 -1.064178,-0.29109 -4.900946,6.81934 -5.817189,6.19419 -0.916244,-0.62515 4.013336,-7.02453 3.321381,-7.89305 -0.691954,-0.86375 -7.974179,2.6342 -8.346403,1.59388 -0.376996,-1.04986 7.377667,-3.32616 7.325174,-4.43806 -0.04772,-1.10235 -7.99804,-2.55307 -7.687853,-3.61725 z"
           stroke-miterlimit=".5"
           inkscape:connector-curvature="0" />
        <path
           id="path11888"
           style="color:#000000;fill:#6798e9;stroke:#6798e9;stroke-width:4;stroke-miterlimit:3.2"
           d="m -3.8740013,165.77143 c -8.2509997,7.27 1.437,13.47 5.124,3.49 l 2.83,-9.26 z"
           stroke-miterlimit="3.2"
           inkscape:connector-curvature="0" />
        <path
           id="path11890"
           style="color:#000000;fill:#6798e9;stroke:#6798e9;stroke-width:4;stroke-miterlimit:3.2"
           d="m -37.032001,191.21143 c -8.251,7.27 1.436,13.47 5.12,3.49 l 2.832,-9.26 z"
           stroke-miterlimit="3.2"
           inkscape:connector-curvature="0" />
        <path
           id="path11894"
           style="color:#000000;fill:#9e9e9e;stroke:#a6a6a6;stroke-width:0.133924;stroke-linecap:round;stroke-miterlimit:0.5"
           d="m -21.010583,188.2127 c 0.314958,-1.06418 7.921686,1.64638 8.532514,0.72059 0.610829,-0.92579 -4.962984,-6.77161 -4.089689,-7.44448 0.878066,-0.68241 5.440194,5.98422 6.480512,5.59291 1.0355452,-0.38654 -0.04295,-8.39413 1.0641778,-8.42753 1.1118993,-0.0334 0.8828385,8.04099 1.956561,8.33686 1.0641783,0.29587 4.9009467,-6.81456 5.8124178,-6.19419 0.92101534,0.62992 -4.0133361,7.02453 -3.3166095,7.89783 0.6871824,0.86375 7.969407,-2.6342 8.3416308,-1.59389 0.3769959,1.04509 -7.3728945,3.32139 -7.3251735,4.43328 0.052493,1.10713 7.9980396,2.55785 7.6878531,3.61726 -0.3101865,1.06895 -7.921686,-1.64638 -8.5325148,-0.71582 -0.6060567,0.92102 4.96775614,6.76684 4.09446184,7.44448 -0.88283854,0.67764 -5.44019404,-5.98899 -6.48528394,-5.59768 -1.0307736,0.39132 0.042949,8.39413 -1.0594062,8.42753 -1.1166714,0.0334 -0.8828385,-8.04099 -1.956561,-8.33686 -1.0641784,-0.29109 -4.9009464,6.81934 -5.8171894,6.19419 -0.916244,-0.62515 4.013336,-7.02453 3.321381,-7.89305 -0.691954,-0.86375 -7.974179,2.6342 -8.346403,1.59388 -0.376996,-1.04986 7.377667,-3.32616 7.325174,-4.43806 -0.04772,-1.10235 -7.99804,-2.55307 -7.687853,-3.61725 z"
           stroke-miterlimit=".5"
           inkscape:connector-curvature="0" />
      </g>
    </g>
  </g>
</svg>
