<?xml version="1.0" encoding="UTF-8" standalone="no"?>
<!-- Created with Inkscape (http://www.inkscape.org/) -->

<svg
   xmlns:dc="http://purl.org/dc/elements/1.1/"
   xmlns:cc="http://creativecommons.org/ns#"
   xmlns:rdf="http://www.w3.org/1999/02/22-rdf-syntax-ns#"
   xmlns:svg="http://www.w3.org/2000/svg"
   xmlns="http://www.w3.org/2000/svg"
   xmlns:sodipodi="http://sodipodi.sourceforge.net/DTD/sodipodi-0.dtd"
   xmlns:inkscape="http://www.inkscape.org/namespaces/inkscape"
   width="210mm"
   height="297mm"
   viewBox="0 0 210 297"
   version="1.1"
   id="svg4088"
   inkscape:version="0.92.5 (2060ec1f9f, 2020-04-08)"
   sodipodi:docname="Fog.svg">
  <defs
     id="defs4082" />
  <sodipodi:namedview
     id="base"
     pagecolor="#ffffff"
     bordercolor="#666666"
     borderopacity="1.0"
     inkscape:pageopacity="0.0"
     inkscape:pageshadow="2"
     inkscape:zoom="0.35"
     inkscape:cx="400"
     inkscape:cy="560"
     inkscape:document-units="mm"
     inkscape:current-layer="layer1"
     showgrid="false"
     inkscape:window-width="1366"
     inkscape:window-height="716"
     inkscape:window-x="0"
     inkscape:window-y="0"
     inkscape:window-maximized="1" />
  <metadata
     id="metadata4085">
    <rdf:RDF>
      <cc:Work
         rdf:about="">
        <dc:format>image/svg+xml</dc:format>
        <dc:type
           rdf:resource="http://purl.org/dc/dcmitype/StillImage" />
        <dc:title></dc:title>
      </cc:Work>
    </rdf:RDF>
  </metadata>
  <g
     inkscape:label="Capa 1"
     inkscape:groupmode="layer"
     id="layer1">
    <path
       id="path13431"
       style="color:#000000;fill:#ffffff;stroke:#6798e9;stroke-width:1.62824583;stroke-linecap:round;stroke-linejoin:round;stroke-miterlimit:0.5"
       d="m 96.165834,135.05656 c -2.58233,0 -4.79689,1.34673 -5.88168,3.28083 -0.43392,-0.24077 -0.91546,-0.38893 -1.42611,-0.38893 -1.54252,0 -2.82839,1.24089 -3.22527,2.92629 -0.67733,-0.26723 -1.45785,-0.43392 -2.29923,-0.43392 -2.52412,0 -4.57464,1.38377 -4.57464,3.08504 0,1.53723 1.67745,2.80194 3.86027,3.03477 -0.0979,0.16669 -0.17463,0.33338 -0.17463,0.508 0,1.62984 4.46881,2.9554 9.97215,2.9554 5.50598,0 9.974786,-1.32556 9.974786,-2.9554 0,-0.11112 -0.0741,-0.21166 -0.11113,-0.32014 0.24077,0.0609 0.48419,0.12435 0.74613,0.12435 1.47373,0 2.667,-1.00277 2.667,-2.23308 0,-1.23296 -1.19327,-2.22515 -2.667,-2.22515 -0.17992,0 -0.33867,0.0582 -0.51065,0.0847 0.15082,-0.49213 0.254,-0.99748 0.254,-1.53194 0,-3.25967 -2.958036,-5.91079 -6.603996,-5.91079 z"
       stroke-miterlimit=".5"
       inkscape:connector-curvature="0" />
    <path
       id="path13472"
       d="m 92.853254,153.28371 c 0.45244,-0.41011 0.97367,-0.91546 1.79917,-0.86255 0.86518,-0.003 1.28058,0.09 2.12725,0.3519 0.84402,0.26458 1.70391,0.70379 2.3495,0.54504 0.67468,-0.16404 1.415516,-0.78052 1.711846,-1.15887 0.43392,0.13229 -0.11906,0.68527 -0.24606,0.9181 -0.40481,0.60854 -0.775226,1.01865 -1.365246,1.19063 -0.64559,0.2196 -1.41288,0.127 -2.05317,-0.008 -0.72496,-0.17198 -1.42875,-0.47096 -2.15106,-0.66411 -0.79904,-0.17198 -1.94998,0.23283 -2.26219,0.37836 -0.32279,0.15345 -0.95779,0.83872 -0.83873,0.28575 0.30956,-0.29105 0.47096,-0.56092 0.92869,-0.97632 z"
       inkscape:connector-curvature="0"
       style="fill:#9e9e9e;stroke:#9e9e9e;stroke-width:0.26458332px" />
    <path
       id="path13501"
       d="m 83.492294,152.97679 c 0.44979,-0.41011 0.97367,-0.91546 1.79652,-0.86519 0.86519,0 1.28059,0.09 2.12725,0.35454 0.84667,0.26194 1.70656,0.70115 2.35215,0.54504 0.67204,-0.16404 1.41287,-0.78316 1.71185,-1.16152 0.43392,0.1323 -0.11906,0.68792 -0.24871,0.92075 -0.40481,0.6059 -0.77523,1.01865 -1.36525,1.19063 -0.64558,0.2196 -1.41023,0.127 -2.05316,-0.008 -0.72232,-0.17198 -1.42875,-0.47096 -2.14842,-0.66411 -0.80169,-0.17198 -1.95262,0.23284 -2.26483,0.37836 -0.32279,0.15081 -0.95515,0.83873 -0.83609,0.28575 0.30692,-0.29104 0.46832,-0.56092 0.92869,-0.97631 z"
       inkscape:connector-curvature="0"
       style="fill:#9e9e9e;stroke:#9e9e9e;stroke-width:0.26458332px" />
    <path
       id="path13505"
       d="m 87.424004,156.05654 c 0.45244,-0.41011 0.97367,-0.91546 1.79917,-0.86519 0.86518,0 1.28058,0.09 2.1246,0.35454 0.84667,0.26194 1.70656,0.70115 2.35215,0.54504 0.67204,-0.16668 1.41552,-0.78316 1.71185,-1.16152 0.43392,0.1323 -0.11906,0.68527 -0.24871,0.92075 -0.40481,0.6059 -0.77258,1.01865 -1.36525,1.19063 -0.64558,0.2196 -1.41023,0.12435 -2.05052,-0.008 -0.72496,-0.17198 -1.43139,-0.47096 -2.15106,-0.66675 -0.79904,-0.16934 -1.95263,0.23548 -2.26219,0.381 -0.32279,0.15081 -0.95779,0.83608 -0.83873,0.28575 0.30692,-0.29104 0.47096,-0.56092 0.92869,-0.97631 z"
       inkscape:connector-curvature="0"
       style="fill:#9e9e9e;stroke:#9e9e9e;stroke-width:0.26458332px" />
  </g>
</svg>
