<?xml version="1.0" encoding="UTF-8" standalone="no"?>
<svg
   xmlns:dc="http://purl.org/dc/elements/1.1/"
   xmlns:cc="http://creativecommons.org/ns#"
   xmlns:rdf="http://www.w3.org/1999/02/22-rdf-syntax-ns#"
   xmlns:svg="http://www.w3.org/2000/svg"
   xmlns="http://www.w3.org/2000/svg"
   xmlns:sodipodi="http://sodipodi.sourceforge.net/DTD/sodipodi-0.dtd"
   xmlns:inkscape="http://www.inkscape.org/namespaces/inkscape"
   width="66mm"
   height="53.986244mm"
   viewBox="0 0 66 53.986244"
   version="1.1"
   id="svg4088"
   inkscape:version="1.0.2 (e86c870879, 2021-01-15, custom)"
   sodipodi:docname="LluviaLigera.svg">
  <defs
     id="defs4082" />
  <sodipodi:namedview
     id="base"
     pagecolor="#ffffff"
     bordercolor="#666666"
     borderopacity="1.0"
     inkscape:pageopacity="0.0"
     inkscape:pageshadow="2"
     inkscape:zoom="0.35"
     inkscape:cx="313.9825"
     inkscape:cy="507.35085"
     inkscape:document-units="mm"
     inkscape:current-layer="layer1"
     showgrid="false"
     inkscape:window-width="1920"
     inkscape:window-height="1017"
     inkscape:window-x="-8"
     inkscape:window-y="-8"
     inkscape:window-maximized="1"
     inkscape:document-rotation="0"
     fit-margin-top="0"
     fit-margin-left="0"
     fit-margin-right="0"
     fit-margin-bottom="0" />
  <metadata
     id="metadata4085">
    <rdf:RDF>
      <cc:Work
         rdf:about="">
        <dc:format>image/svg+xml</dc:format>
        <dc:type
           rdf:resource="http://purl.org/dc/dcmitype/StillImage" />
        <dc:title></dc:title>
      </cc:Work>
    </rdf:RDF>
  </metadata>
  <g
     inkscape:label="Capa 1"
     inkscape:groupmode="layer"
     id="layer1"
     transform="translate(-22.758797,-13.930087)">
    <g
       id="g13532"
       transform="matrix(0.61130922,0,0,0.61130922,-2.6973416,-72.810412)"
       style="stroke:#6798e9">
      <path
         id="path9481"
         style="color:#000000;fill:#ffffff;stroke-width:6.154;stroke-linecap:round;stroke-linejoin:round;stroke-miterlimit:0.5"
         d="m 110.53,144.97 c -9.76,0 -18.146,5.06 -22.249,12.37 -1.638,-0.91 -3.446,-1.46 -5.375,-1.46 -5.833,0 -10.687,4.69 -12.187,11.06 -2.561,-1.01 -5.539,-1.63 -8.719,-1.63 -9.541,0 -17.281,5.22 -17.281,11.66 0,5.81 6.347,10.58 14.593,11.47 -0.369,0.62 -0.656,1.25 -0.656,1.9 0,6.17 16.882,11.19 37.688,11.19 20.806,0 37.686,-5.02 37.686,-11.19 0,-0.41 -0.26,-0.78 -0.41,-1.18 0.92,0.22 1.82,0.46 2.82,0.46 5.56,0.01 10.09,-3.78 10.09,-8.43 0,-4.66 -4.53,-8.44 -10.09,-8.44 -0.68,0 -1.26,0.24 -1.91,0.34 0.56,-1.86 0.94,-3.76 0.94,-5.78 0,-12.32 -11.16,-22.34 -24.94,-22.34 z"
         stroke-miterlimit=".5"
         inkscape:connector-curvature="0" />
      <path
         id="path6522"
         style="color:#000000;fill:#6798e9;stroke-width:4;stroke-miterlimit:3.2"
         d="m 83.862,219.53 c -8.251,7.27 1.437,13.47 5.12,3.49 l 2.833,-9.26 z"
         stroke-miterlimit="3.2"
         inkscape:connector-curvature="0" />
      <path
         id="path11969"
         style="color:#000000;fill:#ffffff;stroke-width:6.154;stroke-linecap:round;stroke-linejoin:round;stroke-miterlimit:0.5"
         d="m 110.53,144.97 c -9.76,0 -18.146,5.06 -22.249,12.37 -1.638,-0.91 -3.446,-1.46 -5.375,-1.46 -5.833,0 -10.687,4.69 -12.187,11.06 -2.561,-1.01 -5.539,-1.63 -8.719,-1.63 -9.541,0 -17.281,5.22 -17.281,11.66 0,5.81 6.347,10.58 14.593,11.47 -0.369,0.62 -0.656,1.25 -0.656,1.9 0,6.17 16.882,11.19 37.688,11.19 20.806,0 37.686,-5.02 37.686,-11.19 0,-0.41 -0.26,-0.78 -0.41,-1.18 0.92,0.22 1.82,0.46 2.82,0.46 5.56,0.01 10.09,-3.78 10.09,-8.43 0,-4.66 -4.53,-8.44 -10.09,-8.44 -0.68,0 -1.26,0.24 -1.91,0.34 0.56,-1.86 0.94,-3.76 0.94,-5.78 0,-12.32 -11.16,-22.34 -24.94,-22.34 z"
         stroke-miterlimit=".5"
         inkscape:connector-curvature="0" />
    </g>
  </g>
</svg>
