<?xml version="1.0" encoding="UTF-8" standalone="no"?>
<!-- Created with Inkscape (http://www.inkscape.org/) -->

<svg
   xmlns:dc="http://purl.org/dc/elements/1.1/"
   xmlns:cc="http://creativecommons.org/ns#"
   xmlns:rdf="http://www.w3.org/1999/02/22-rdf-syntax-ns#"
   xmlns:svg="http://www.w3.org/2000/svg"
   xmlns="http://www.w3.org/2000/svg"
   xmlns:sodipodi="http://sodipodi.sourceforge.net/DTD/sodipodi-0.dtd"
   xmlns:inkscape="http://www.inkscape.org/namespaces/inkscape"
   width="210mm"
   height="297mm"
   viewBox="0 0 210 297"
   version="1.1"
   id="svg4088"
   inkscape:version="0.92.5 (2060ec1f9f, 2020-04-08)"
   sodipodi:docname="LluviaFuerte.svg">
  <defs
     id="defs4082" />
  <sodipodi:namedview
     id="base"
     pagecolor="#ffffff"
     bordercolor="#666666"
     borderopacity="1.0"
     inkscape:pageopacity="0.0"
     inkscape:pageshadow="2"
     inkscape:zoom="0.35"
     inkscape:cx="400"
     inkscape:cy="560"
     inkscape:document-units="mm"
     inkscape:current-layer="layer1"
     showgrid="false"
     inkscape:window-width="1366"
     inkscape:window-height="716"
     inkscape:window-x="0"
     inkscape:window-y="0"
     inkscape:window-maximized="1" />
  <metadata
     id="metadata4085">
    <rdf:RDF>
      <cc:Work
         rdf:about="">
        <dc:format>image/svg+xml</dc:format>
        <dc:type
           rdf:resource="http://purl.org/dc/dcmitype/StillImage" />
        <dc:title></dc:title>
      </cc:Work>
    </rdf:RDF>
  </metadata>
  <g
     inkscape:label="Capa 1"
     inkscape:groupmode="layer"
     id="layer1">
    <g
       id="g13542"
       transform="matrix(0.26458333,0,0,0.26458333,-6.2687338,23.967387)"
       style="stroke:#6798e9">
      <path
         id="path8749"
         style="color:#000000;fill:none;stroke-width:6.15399981;stroke-linecap:round;stroke-linejoin:round;stroke-miterlimit:0.5"
         d="m 378.31,207.24 c 15.43,-1.4 26.66,-5.66 26.66,-10.69 0,-0.41 -0.27,-0.8 -0.42,-1.2 0.91,0.23 1.83,0.46 2.83,0.46 5.57,0 10.07,-3.78 10.07,-8.44 0,-4.65 -4.5,-8.41 -10.07,-8.41 -0.68,0 -1.29,0.22 -1.93,0.33 0.56,-1.86 0.95,-3.77 0.95,-5.79 0,-12.33 -11.17,-22.34 -24.95,-22.34 v 0 c -9.77,0 -18.13,5.09 -22.23,12.4 -1.64,-0.92 -3.47,-1.48 -5.4,-1.48 -5.83,0 -10.68,4.69 -12.18,11.06 -2.56,-1.01 -5.52,-1.64 -8.7,-1.64 -9.54,0 -17.29,5.23 -17.29,11.67 0,5.81 6.35,10.59 14.6,11.47 -0.37,0.63 -0.66,1.25 -0.66,1.91 0,4.25 8.01,7.94 19.79,9.83"
         stroke-miterlimit=".5"
         inkscape:connector-curvature="0" />
      <path
         id="path8734"
         style="color:#000000;fill:#6798e9;stroke-width:4;stroke-miterlimit:3.20000005"
         d="m 338.14,223.91 c -8.25,7.27 1.43,13.47 5.12,3.49 l 2.83,-9.26 z"
         stroke-miterlimit="3.2"
         inkscape:connector-curvature="0" />
      <path
         id="path8736"
         style="color:#000000;fill:#6798e9;stroke-width:4;stroke-miterlimit:3.20000005"
         d="m 367.18,225.11 c -8.25,7.27 1.44,13.47 5.13,3.49 l 2.83,-9.26 z"
         stroke-miterlimit="3.2"
         inkscape:connector-curvature="0" />
      <path
         id="path8738"
         style="color:#000000;fill:#6798e9;stroke-width:4;stroke-miterlimit:3.20000005"
         d="m 360.42,209.77 c -8.25,7.27 1.44,13.47 5.12,3.49 l 2.83,-9.26 z"
         stroke-miterlimit="3.2"
         inkscape:connector-curvature="0" />
      <path
         id="path10281"
         style="color:#000000;fill:none;stroke-width:6.15399981;stroke-linecap:round;stroke-linejoin:round;stroke-miterlimit:0.5"
         d="m 378.31,207.24 c 15.43,-1.4 26.66,-5.66 26.66,-10.69 0,-0.41 -0.27,-0.8 -0.42,-1.2 0.91,0.23 1.83,0.46 2.83,0.46 5.57,0 10.07,-3.78 10.07,-8.44 0,-4.65 -4.5,-8.41 -10.07,-8.41 -0.68,0 -1.29,0.22 -1.93,0.33 0.56,-1.86 0.95,-3.77 0.95,-5.79 0,-12.33 -11.17,-22.34 -24.95,-22.34 v 0 c -9.77,0 -18.13,5.09 -22.23,12.4 -1.64,-0.92 -3.47,-1.48 -5.4,-1.48 -5.83,0 -10.68,4.69 -12.18,11.06 -2.56,-1.01 -5.52,-1.64 -8.7,-1.64 -9.54,0 -17.29,5.23 -17.29,11.67 0,5.81 6.35,10.59 14.6,11.47 -0.37,0.63 -0.66,1.25 -0.66,1.91 0,4.25 8.01,7.94 19.79,9.83"
         stroke-miterlimit=".5"
         inkscape:connector-curvature="0" />
      <path
         id="path10283"
         style="color:#000000;fill:#6798e9;stroke-width:4;stroke-miterlimit:3.20000005"
         d="m 338.14,223.91 c -8.25,7.27 1.43,13.47 5.12,3.49 l 2.83,-9.26 z"
         stroke-miterlimit="3.2"
         inkscape:connector-curvature="0" />
      <path
         id="path10285"
         style="color:#000000;fill:#6798e9;stroke-width:4;stroke-miterlimit:3.20000005"
         d="m 367.18,225.11 c -8.25,7.27 1.44,13.47 5.13,3.49 l 2.83,-9.26 z"
         stroke-miterlimit="3.2"
         inkscape:connector-curvature="0" />
      <path
         id="path10287"
         style="color:#000000;fill:#6798e9;stroke-width:4;stroke-miterlimit:3.20000005"
         d="m 360.42,209.77 c -8.25,7.27 1.44,13.47 5.12,3.49 l 2.83,-9.26 z"
         stroke-miterlimit="3.2"
         inkscape:connector-curvature="0" />
    </g>
  </g>
</svg>
