<?xml version="1.0" encoding="UTF-8" standalone="no"?>
<svg
   xmlns:dc="http://purl.org/dc/elements/1.1/"
   xmlns:cc="http://creativecommons.org/ns#"
   xmlns:rdf="http://www.w3.org/1999/02/22-rdf-syntax-ns#"
   xmlns:svg="http://www.w3.org/2000/svg"
   xmlns="http://www.w3.org/2000/svg"
   xmlns:sodipodi="http://sodipodi.sourceforge.net/DTD/sodipodi-0.dtd"
   xmlns:inkscape="http://www.inkscape.org/namespaces/inkscape"
   width="66mm"
   height="54.040001mm"
   viewBox="0 0 66 54.039999"
   version="1.1"
   id="svg4088"
   inkscape:version="1.0.2 (e86c870879, 2021-01-15, custom)"
   sodipodi:docname="Lluvia.svg">
  <defs
     id="defs4082" />
  <sodipodi:namedview
     id="base"
     pagecolor="#ffffff"
     bordercolor="#666666"
     borderopacity="1.0"
     inkscape:pageopacity="0.0"
     inkscape:pageshadow="2"
     inkscape:zoom="2.8"
     inkscape:cx="170.70179"
     inkscape:cy="130.31341"
     inkscape:document-units="mm"
     inkscape:current-layer="layer1"
     showgrid="false"
     inkscape:window-width="1920"
     inkscape:window-height="1017"
     inkscape:window-x="-8"
     inkscape:window-y="-8"
     inkscape:window-maximized="1"
     inkscape:document-rotation="0" />
  <metadata
     id="metadata4085">
    <rdf:RDF>
      <cc:Work
         rdf:about="">
        <dc:format>image/svg+xml</dc:format>
        <dc:type
           rdf:resource="http://purl.org/dc/dcmitype/StillImage" />
        <dc:title></dc:title>
      </cc:Work>
    </rdf:RDF>
  </metadata>
  <g
     inkscape:label="Capa 1"
     inkscape:groupmode="layer"
     id="layer1">
    <g
       id="g13537"
       transform="matrix(0.61137151,0,0,0.61137151,-107.61936,-87.835193)"
       style="stroke:#6798e9">
      <path
         id="path8702"
         style="color:#000000;fill:#ffffff;stroke-width:6.154;stroke-linecap:round;stroke-linejoin:round;stroke-miterlimit:0.5"
         d="m 245.04,147.27 c -9.77,0 -18.13,5.09 -22.24,12.4 -1.63,-0.91 -3.46,-1.47 -5.39,-1.47 -5.83,0 -10.68,4.69 -12.18,11.06 -2.56,-1.01 -5.52,-1.64 -8.7,-1.64 -9.54,0 -17.29,5.23 -17.29,11.67 0,5.81 6.35,10.58 14.59,11.47 -0.37,0.63 -0.66,1.25 -0.66,1.91 0,6.16 16.89,11.17 37.7,11.17 20.8,0 37.69,-5.01 37.69,-11.17 0,-0.41 -0.27,-0.8 -0.42,-1.2 0.91,0.22 1.83,0.46 2.83,0.46 5.56,0 10.07,-3.78 10.07,-8.44 0,-4.65 -4.51,-8.41 -10.07,-8.41 -0.69,0 -1.29,0.22 -1.93,0.33 0.56,-1.86 0.95,-3.77 0.95,-5.79 0,-12.33 -11.17,-22.35 -24.95,-22.35 z"
         stroke-miterlimit=".5"
         inkscape:connector-curvature="0" />
      <path
         id="path8704"
         style="color:#000000;fill:#6798e9;stroke-width:4;stroke-miterlimit:3.2"
         d="m 208.33,221.08 c -8.25,7.27 1.43,13.47 5.12,3.48 l 2.83,-9.26 z"
         stroke-miterlimit="3.2"
         inkscape:connector-curvature="0" />
      <path
         id="path8706"
         style="color:#000000;fill:#6798e9;stroke-width:4;stroke-miterlimit:3.2"
         d="m 229.2,221.85 c -8.25,7.27 1.44,13.47 5.12,3.49 l 2.83,-9.26 z"
         stroke-miterlimit="3.2"
         inkscape:connector-curvature="0" />
    </g>
  </g>
</svg>
