<?xml version="1.0" encoding="UTF-8" standalone="no"?>
<svg
   xmlns:dc="http://purl.org/dc/elements/1.1/"
   xmlns:cc="http://creativecommons.org/ns#"
   xmlns:rdf="http://www.w3.org/1999/02/22-rdf-syntax-ns#"
   xmlns:svg="http://www.w3.org/2000/svg"
   xmlns="http://www.w3.org/2000/svg"
   xmlns:sodipodi="http://sodipodi.sourceforge.net/DTD/sodipodi-0.dtd"
   xmlns:inkscape="http://www.inkscape.org/namespaces/inkscape"
   width="66mm"
   height="51.286175mm"
   viewBox="0 0 66 51.286175"
   version="1.1"
   id="svg4088"
   inkscape:version="1.0.2 (e86c870879, 2021-01-15, custom)"
   sodipodi:docname="nieve.svg">
  <defs
     id="defs4082" />
  <sodipodi:namedview
     id="base"
     pagecolor="#ffffff"
     bordercolor="#666666"
     borderopacity="1.0"
     inkscape:pageopacity="0.0"
     inkscape:pageshadow="2"
     inkscape:zoom="0.35"
     inkscape:cx="136.83916"
     inkscape:cy="282.28489"
     inkscape:document-units="mm"
     inkscape:current-layer="layer1"
     showgrid="false"
     inkscape:window-width="1920"
     inkscape:window-height="1017"
     inkscape:window-x="-8"
     inkscape:window-y="-8"
     inkscape:window-maximized="1"
     inkscape:document-rotation="0" />
  <metadata
     id="metadata4085">
    <rdf:RDF>
      <cc:Work
         rdf:about="">
        <dc:format>image/svg+xml</dc:format>
        <dc:type
           rdf:resource="http://purl.org/dc/dcmitype/StillImage" />
        <dc:title></dc:title>
      </cc:Work>
    </rdf:RDF>
  </metadata>
  <g
     inkscape:label="Capa 1"
     inkscape:groupmode="layer"
     id="layer1"
     transform="translate(-76.431543,-80.282362)">
    <g
       id="g13593"
       stroke-miterlimit=".5"
       transform="matrix(0.61131488,0,0,0.61131488,-109.44058,-72.29144)"
       style="stroke-linecap:round;stroke-miterlimit:0.5">
      <path
         id="path11921"
         style="color:#000000;fill:none;stroke:#6798e9;stroke-width:6.154;stroke-linejoin:round"
         d="m 382.43,306.74 c 8.54,-2.06 14.01,-5.2 14.01,-8.7 0,-0.42 -0.26,-0.79 -0.41,-1.19 0.91,0.23 1.82,0.47 2.82,0.47 5.56,0 10.09,-3.78 10.09,-8.44 0,-4.65 -4.53,-8.44 -10.09,-8.44 -0.69,0 -1.27,0.24 -1.91,0.35 0.56,-1.86 0.94,-3.76 0.94,-5.78 0,-12.33 -11.16,-22.35 -24.94,-22.35 -9.77,0 -18.15,5.07 -22.25,12.38 -1.64,-0.92 -3.45,-1.47 -5.38,-1.47 -5.83,0 -10.68,4.69 -12.18,11.06 -2.56,-1.01 -5.54,-1.62 -8.72,-1.62 -9.54,0 -17.28,5.22 -17.28,11.65 0,5.81 6.34,10.59 14.59,11.47 -0.37,0.63 -0.66,1.25 -0.66,1.91 0,2.86 3.64,5.47 9.63,7.46 m 51.62,1.26 c 0.04,-0.01 -10.15,0.98 -10.11,0.97 m -41.51,-2.23 c 0.04,0.01 7.55,1.7 8.56,1.64"
         inkscape:connector-curvature="0" />
      <path
         id="path11929"
         style="color:#000000;fill:#9e9e9e;stroke:#a6a6a6;stroke-width:0.17299"
         d="m 336.74,363.88 a 10.32,10.32 0 1 1 -20.64,0 10.32,10.32 0 1 1 20.64,0 z"
         transform="matrix(0.77419,0,0,0.77419,103.25,23.035)"
         inkscape:connector-curvature="0" />
      <path
         id="path11933"
         style="color:#000000;fill:#9e9e9e;stroke:#a6a6a6;stroke-width:0.17299"
         d="m 336.74,363.88 a 10.32,10.32 0 1 1 -20.64,0 10.32,10.32 0 1 1 20.64,0 z"
         transform="matrix(0.77419,0,0,0.77419,88.247,43.709)"
         inkscape:connector-curvature="0" />
    </g>
  </g>
</svg>
