<?xml version="1.0" encoding="UTF-8" standalone="no"?>
<svg
   xmlns:dc="http://purl.org/dc/elements/1.1/"
   xmlns:cc="http://creativecommons.org/ns#"
   xmlns:rdf="http://www.w3.org/1999/02/22-rdf-syntax-ns#"
   xmlns:svg="http://www.w3.org/2000/svg"
   xmlns="http://www.w3.org/2000/svg"
   xmlns:sodipodi="http://sodipodi.sourceforge.net/DTD/sodipodi-0.dtd"
   xmlns:inkscape="http://www.inkscape.org/namespaces/inkscape"
   width="66mm"
   height="36.856129mm"
   viewBox="0 0 66 36.856129"
   version="1.1"
   id="svg4088"
   inkscape:version="1.0.2 (e86c870879, 2021-01-15, custom)"
   sodipodi:docname="Nublado.svg">
  <defs
     id="defs4082" />
  <sodipodi:namedview
     id="base"
     pagecolor="#ffffff"
     bordercolor="#666666"
     borderopacity="1.0"
     inkscape:pageopacity="0.0"
     inkscape:pageshadow="2"
     inkscape:zoom="0.35"
     inkscape:cx="-403.17155"
     inkscape:cy="284.29826"
     inkscape:document-units="mm"
     inkscape:current-layer="layer1"
     showgrid="false"
     inkscape:window-width="1920"
     inkscape:window-height="1017"
     inkscape:window-x="-8"
     inkscape:window-y="-8"
     inkscape:window-maximized="1"
     inkscape:document-rotation="0" />
  <metadata
     id="metadata4085">
    <rdf:RDF>
      <cc:Work
         rdf:about="">
        <dc:format>image/svg+xml</dc:format>
        <dc:type
           rdf:resource="http://purl.org/dc/dcmitype/StillImage" />
        <dc:title></dc:title>
      </cc:Work>
    </rdf:RDF>
  </metadata>
  <g
     inkscape:label="Capa 1"
     inkscape:groupmode="layer"
     id="layer1"
     transform="translate(-94.199257,-72.946084)">
    <g
       id="g13520"
       transform="matrix(0.56645553,0,0,0.56645553,-157.08778,54.523517)">
      <path
         id="path5022"
         d="m 310.66,132.06 c -1.82,2.04 -22.21,-18.38 -24.89,-17.38 -2.68,1.01 -6.74,33.64 -9.57,34.01 -2.84,0.37 -7.72,-33.08 -10.49,-33.88 -2.76,-0.8 -18.77,19.34 -21.18,17.83 -2.4,-1.52 5.7,-26.1 4.37,-28.68 -1.34,-2.57 -31.86,-3.78 -32.49,-6.645 -0.63,-2.87 27.67,-10.4 27.9,-13.242 0.23,-2.843 -19,-18.902 -17.9,-21.394 1.1,-2.492 26.86,8.177 28.6,5.992 1.74,-2.186 -3.39,-29.684 -0.75,-30.508 2.64,-0.823 18.5,18.486 21.32,18.393 2.82,-0.092 11.3,-24.287 14.18,-23.722 2.88,0.565 1.44,25.668 3.67,27.344 2.23,1.676 24.27,-6.283 25.91,-4.005 1.63,2.278 -12.64,24.445 -11.78,27.073 0.86,2.628 27.01,5.135 26.65,7.852 -0.35,2.717 -32.7,3.876 -34.04,6.507 -1.35,2.635 12.32,32.415 10.49,34.455 z"
         style="color:#000000;fill:#f5ff12"
         transform="matrix(0.46778,0,0,0.46778,349.69,17.168)"
         inkscape:connector-curvature="0" />
      <path
         id="path5024"
         style="color:#000000;fill:#ffffff;stroke:#f5ff12;stroke-width:13.291;stroke-miterlimit:0.5"
         d="m 194.52,77.284 a 39.901,37.407 0 1 1 -79.8,0 39.901,37.407 0 1 1 79.8,0 z"
         transform="matrix(0.45842,0,0,0.41032,407.33,25.303)"
         stroke-miterlimit=".5"
         inkscape:connector-curvature="0" />
      <path
         id="path5030"
         style="color:#000000;fill:#ffffff;stroke:#6798e9;stroke-width:6.154;stroke-linecap:round;stroke-linejoin:round;stroke-miterlimit:0.5"
         d="m 512.49,36.237 c -9.77,0 -18.13,5.09 -22.23,12.401 -1.64,-0.915 -3.47,-1.475 -5.4,-1.475 -5.83,0 -10.68,4.692 -12.18,11.062 -2.56,-1.012 -5.52,-1.639 -8.7,-1.639 -9.54,0 -17.29,5.227 -17.29,11.663 0,5.81 6.35,10.589 14.59,11.472 -0.37,0.627 -0.66,1.254 -0.66,1.912 0,6.162 16.89,11.171 37.7,11.171 20.8,0 37.69,-5.009 37.69,-11.171 0,-0.415 -0.27,-0.799 -0.42,-1.202 0.91,0.227 1.83,0.464 2.83,0.464 5.56,0 10.07,-3.784 10.07,-8.439 0,-4.656 -4.51,-8.413 -10.07,-8.413 -0.68,0 -1.29,0.219 -1.93,0.328 0.56,-1.862 0.95,-3.771 0.95,-5.791 0,-12.324 -11.17,-22.343 -24.95,-22.343 z"
         stroke-miterlimit=".5"
         inkscape:connector-curvature="0" />
      <path
         id="path5044"
         style="color:#000000;fill:#386195;stroke:#386195;stroke-width:6.154;stroke-linecap:round;stroke-linejoin:round;stroke-miterlimit:0.5"
         d="m 535.68,60.932 c -5.8,0 -10.76,3.021 -13.2,7.361 -0.97,-0.543 -2.05,-0.875 -3.2,-0.875 -3.46,0 -6.34,2.785 -7.23,6.566 -1.52,-0.601 -3.28,-0.973 -5.17,-0.973 -5.66,0 -10.26,3.103 -10.26,6.923 0,3.449 3.77,6.285 8.66,6.81 -0.21,0.372 -0.39,0.744 -0.39,1.135 0,3.657 10.03,6.631 22.38,6.631 12.35,0 22.37,-2.974 22.37,-6.631 0,-0.246 -0.16,-0.474 -0.25,-0.714 0.54,0.135 1.09,0.276 1.68,0.276 3.3,0 5.98,-2.246 5.98,-5.01 0,-2.763 -2.68,-4.994 -5.98,-4.994 -0.4,0 -0.76,0.131 -1.14,0.195 0.33,-1.105 0.56,-2.238 0.56,-3.437 0,-7.316 -6.63,-13.263 -14.81,-13.263 z"
         stroke-miterlimit=".5"
         inkscape:connector-curvature="0" />
    </g>
  </g>
</svg>
