<?xml version="1.0" encoding="UTF-8" standalone="no"?>
<svg
   xmlns:dc="http://purl.org/dc/elements/1.1/"
   xmlns:cc="http://creativecommons.org/ns#"
   xmlns:rdf="http://www.w3.org/1999/02/22-rdf-syntax-ns#"
   xmlns:svg="http://www.w3.org/2000/svg"
   xmlns="http://www.w3.org/2000/svg"
   xmlns:sodipodi="http://sodipodi.sourceforge.net/DTD/sodipodi-0.dtd"
   xmlns:inkscape="http://www.inkscape.org/namespaces/inkscape"
   width="66mm"
   height="64.910278mm"
   viewBox="0 0 66 64.910278"
   version="1.1"
   id="svg4088"
   inkscape:version="1.0.2 (e86c870879, 2021-01-15, custom)"
   sodipodi:docname="Soleado.svg">
  <defs
     id="defs4082" />
  <sodipodi:namedview
     id="base"
     pagecolor="#ffffff"
     bordercolor="#666666"
     borderopacity="1.0"
     inkscape:pageopacity="0.0"
     inkscape:pageshadow="2"
     inkscape:zoom="0.35"
     inkscape:cx="365.11305"
     inkscape:cy="524.61129"
     inkscape:document-units="mm"
     inkscape:current-layer="layer1"
     showgrid="false"
     inkscape:window-width="1920"
     inkscape:window-height="1017"
     inkscape:window-x="-8"
     inkscape:window-y="-8"
     inkscape:window-maximized="1"
     inkscape:document-rotation="0" />
  <metadata
     id="metadata4085">
    <rdf:RDF>
      <cc:Work
         rdf:about="">
        <dc:format>image/svg+xml</dc:format>
        <dc:type
           rdf:resource="http://purl.org/dc/dcmitype/StillImage" />
        <dc:title></dc:title>
      </cc:Work>
    </rdf:RDF>
  </metadata>
  <g
     inkscape:label="Capa 1"
     inkscape:groupmode="layer"
     id="layer1"
     transform="translate(-9.230506,-9.3632621)">
    <path
       id="path2035"
       d="M 62.035621,64.955609 C 61.016049,66.098432 49.593471,54.659036 48.092121,55.219258 46.590773,55.78505 44.316341,74.064551 42.73096,74.271831 41.139979,74.479184 38.40618,55.740242 36.854412,55.292089 35.308246,54.843912 26.339367,66.126431 24.989274,65.280528 23.644781,64.42903 28.18244,50.65918 27.437367,49.213866 26.686695,47.774123 9.5892421,47.096286 9.2363121,45.491299 8.8833822,43.883514 24.737182,39.665163 24.866028,38.073058 24.994881,36.480389 14.222134,27.48408 14.838361,26.088041 c 0.616224,-1.39604 15.047102,4.580789 16.021859,3.356742 0.974756,-1.224611 -1.899096,-16.629117 -0.420154,-17.090717 1.478941,-0.46106 10.36379,10.355933 11.943569,10.303837 1.579776,-0.05153 6.330315,-13.6056852 7.943705,-13.2891831 1.61339,0.3165265 0.806695,14.3793461 2.05595,15.3182511 1.249258,0.938905 13.596172,-3.519778 14.514909,-2.243636 0.913135,1.276167 -7.080988,13.694222 -6.599212,15.16643 0.481776,1.472233 15.131136,2.876664 14.929456,4.398735 -0.196066,1.522071 -18.318695,2.171345 -19.06937,3.645246 -0.756278,1.476159 6.901724,18.15904 5.876548,19.301863 z"
       style="color:#000000;fill:#f5ff12;stroke-width:0.560205"
       inkscape:connector-curvature="0" />
  </g>
</svg>
