<?xml version="1.0" encoding="UTF-8" standalone="no"?>
<svg
   xmlns:dc="http://purl.org/dc/elements/1.1/"
   xmlns:cc="http://creativecommons.org/ns#"
   xmlns:rdf="http://www.w3.org/1999/02/22-rdf-syntax-ns#"
   xmlns:svg="http://www.w3.org/2000/svg"
   xmlns="http://www.w3.org/2000/svg"
   xmlns:sodipodi="http://sodipodi.sourceforge.net/DTD/sodipodi-0.dtd"
   xmlns:inkscape="http://www.inkscape.org/namespaces/inkscape"
   width="66mm"
   height="56.870708mm"
   viewBox="0 0 66 56.870708"
   version="1.1"
   id="svg4088"
   inkscape:version="1.0.2 (e86c870879, 2021-01-15, custom)"
   sodipodi:docname="Tormenta.svg">
  <defs
     id="defs4082" />
  <sodipodi:namedview
     id="base"
     pagecolor="#ffffff"
     bordercolor="#666666"
     borderopacity="1.0"
     inkscape:pageopacity="0.0"
     inkscape:pageshadow="2"
     inkscape:zoom="0.35"
     inkscape:cx="139.68629"
     inkscape:cy="358.27248"
     inkscape:document-units="mm"
     inkscape:current-layer="layer1"
     showgrid="false"
     inkscape:window-width="1920"
     inkscape:window-height="1017"
     inkscape:window-x="-8"
     inkscape:window-y="-8"
     inkscape:window-maximized="1"
     inkscape:document-rotation="0" />
  <metadata
     id="metadata4085">
    <rdf:RDF>
      <cc:Work
         rdf:about="">
        <dc:format>image/svg+xml</dc:format>
        <dc:type
           rdf:resource="http://purl.org/dc/dcmitype/StillImage" />
        <dc:title></dc:title>
      </cc:Work>
    </rdf:RDF>
  </metadata>
  <g
     inkscape:label="Capa 1"
     inkscape:groupmode="layer"
     id="layer1"
     transform="translate(-68.874668,-53.373739)">
    <g
       id="g13552"
       transform="matrix(0.61142815,0,0,0.61142815,-202.89475,-34.80037)">
      <path
         id="path10289"
         style="color:#000000;fill:none;stroke:#6798e9;stroke-width:6.154;stroke-linecap:round;stroke-linejoin:round;stroke-miterlimit:0.5"
         d="m 510.21,208.67 c 15.43,-1.4 26.67,-5.66 26.67,-10.68 0,-0.42 -0.28,-0.8 -0.43,-1.21 0.91,0.23 1.83,0.47 2.83,0.47 5.57,0 10.07,-3.79 10.07,-8.44 0,-4.66 -4.5,-8.41 -10.07,-8.41 -0.68,0 -1.28,0.21 -1.93,0.32 0.56,-1.86 0.95,-3.77 0.95,-5.79 0,-12.32 -11.17,-22.34 -24.95,-22.34 v 0 c -9.77,0 -18.13,5.09 -22.23,12.4 -1.64,-0.91 -3.47,-1.47 -5.39,-1.47 -5.84,0 -10.69,4.69 -12.19,11.06 -2.56,-1.01 -5.52,-1.64 -8.7,-1.64 -9.54,0 -17.28,5.23 -17.28,11.66 0,5.81 6.34,10.59 14.59,11.47 -0.37,0.63 -0.66,1.26 -0.66,1.92 0,4.24 8.01,7.94 19.79,9.83"
         stroke-miterlimit=".5"
         inkscape:connector-curvature="0" />
      <path
         id="path10291"
         style="color:#000000;fill:#6798e9;stroke:#6798e9;stroke-width:4;stroke-miterlimit:3.2"
         d="m 470.04,225.35 c -8.25,7.27 1.43,13.47 5.12,3.48 l 2.83,-9.26 z"
         stroke-miterlimit="3.2"
         inkscape:connector-curvature="0" />
      <path
         id="path10293"
         style="color:#000000;fill:#6798e9;stroke:#6798e9;stroke-width:4;stroke-miterlimit:3.2"
         d="m 499.09,226.55 c -8.25,7.27 1.43,13.47 5.12,3.48 l 2.83,-9.26 z"
         stroke-miterlimit="3.2"
         inkscape:connector-curvature="0" />
      <path
         id="path10295"
         style="color:#000000;fill:#6798e9;stroke:#6798e9;stroke-width:4;stroke-miterlimit:3.2"
         d="m 492.32,211.21 c -8.25,7.27 1.44,13.46 5.12,3.48 l 2.84,-9.26 z"
         stroke-miterlimit="3.2"
         inkscape:connector-curvature="0" />
      <path
         id="path10297"
         style="color:#000000;fill:none;stroke:#6798e9;stroke-width:6.154;stroke-linecap:round;stroke-linejoin:round;stroke-miterlimit:0.5"
         d="m 510.21,208.67 c 15.43,-1.4 26.67,-5.66 26.67,-10.68 0,-0.42 -0.28,-0.8 -0.43,-1.21 0.91,0.23 1.83,0.47 2.83,0.47 5.57,0 10.07,-3.79 10.07,-8.44 0,-4.66 -4.5,-8.41 -10.07,-8.41 -0.68,0 -1.28,0.21 -1.93,0.32 0.56,-1.86 0.95,-3.77 0.95,-5.79 0,-12.32 -11.17,-22.34 -24.95,-22.34 v 0 c -9.77,0 -18.13,5.09 -22.23,12.4 -1.64,-0.91 -3.47,-1.47 -5.39,-1.47 -5.84,0 -10.69,4.69 -12.19,11.06 -2.56,-1.01 -5.52,-1.64 -8.7,-1.64 -9.54,0 -17.28,5.23 -17.28,11.66 0,5.81 6.34,10.59 14.59,11.47 -0.37,0.63 -0.66,1.26 -0.66,1.92 0,4.24 8.01,7.94 19.79,9.83"
         stroke-miterlimit=".5"
         inkscape:connector-curvature="0" />
      <path
         id="path10299"
         style="color:#000000;fill:#6798e9;stroke:#6798e9;stroke-width:4;stroke-miterlimit:3.2"
         d="m 470.04,225.35 c -8.25,7.27 1.43,13.47 5.12,3.48 l 2.83,-9.26 z"
         stroke-miterlimit="3.2"
         inkscape:connector-curvature="0" />
      <path
         id="path10301"
         style="color:#000000;fill:#6798e9;stroke:#6798e9;stroke-width:4;stroke-miterlimit:3.2"
         d="m 499.09,226.55 c -8.25,7.27 1.43,13.47 5.12,3.48 l 2.83,-9.26 z"
         stroke-miterlimit="3.2"
         inkscape:connector-curvature="0" />
      <path
         id="path10303"
         style="color:#000000;fill:#6798e9;stroke:#6798e9;stroke-width:4;stroke-miterlimit:3.2"
         d="m 492.32,211.21 c -8.25,7.27 1.44,13.46 5.12,3.48 l 2.84,-9.26 z"
         stroke-miterlimit="3.2"
         inkscape:connector-curvature="0" />
      <path
         id="path10305"
         style="color:#000000;fill:#f5ff12;stroke:#f5ff12;stroke-width:0.5;stroke-linecap:round;stroke-miterlimit:0.5"
         d="m 511.42,157.95 -20.04,12.71 19.79,4.37 -18.29,13.64 -7.39,-2.3 5.24,13.15 20.82,-5.74 -8.79,-2.4 23.87,-19.59 -21.82,-3.56 21.07,-13.24 -12.02,-1.99 13.09,-8.41 -4.81,-0.13 -20.31,11.55 z"
         stroke-miterlimit=".5"
         inkscape:connector-curvature="0" />
    </g>
  </g>
</svg>
